<mxfile host="app.diagrams.net" agent="Mozilla/5.0 (Windows NT 10.0; Win64; x64) AppleWebKit/537.36 (KHTML, like Gecko) Chrome/130.0.0.0 Safari/537.36" version="26.0.5">
  <diagram name="Страница — 1" id="hB7ZAFiHpmezK1aurz52">
    <mxGraphModel dx="2514" dy="2047" grid="1" gridSize="10" guides="1" tooltips="1" connect="1" arrows="1" fold="1" page="1" pageScale="1" pageWidth="827" pageHeight="1169" math="0" shadow="0">
      <root>
        <mxCell id="0" />
        <mxCell id="1" parent="0" />
        <object placeholders="1" c4Name="API Gateway Сервиса&#xa;анализа данных" c4Type="Container" c4Technology="Envoy" c4Description="API шлюз и балансировщик" label="&lt;font style=&quot;font-size: 16px&quot;&gt;&lt;b&gt;%c4Name%&lt;/b&gt;&lt;/font&gt;&lt;div&gt;[%c4Type%: %c4Technology%]&lt;/div&gt;&lt;br&gt;&lt;div&gt;&lt;font style=&quot;font-size: 11px&quot;&gt;%c4Description%&lt;/font&gt;&lt;/div&gt;" id="iNfiKwskieoxh-VMMIlT-1">
          <mxCell style="rounded=1;whiteSpace=wrap;html=1;labelBackgroundColor=none;fillColor=#63BEF2;fontColor=#ffffff;align=center;arcSize=6;strokeColor=#2086C9;metaEdit=1;resizable=0;points=[[0.25,0,0],[0.5,0,0],[0.75,0,0],[1,0.25,0],[1,0.5,0],[1,0.75,0],[0.75,1,0],[0.5,1,0],[0.25,1,0],[0,0.75,0],[0,0.5,0],[0,0.25,0]];" vertex="1" parent="1">
            <mxGeometry x="81" y="40" width="240" height="120" as="geometry" />
          </mxCell>
        </object>
        <object placeholders="1" c4Name="API Gateway Сервиса&#xa;построения и&#xa;хранения отчетов" c4Type="Container" c4Technology="Envoy" c4Description="API шлюз и балансировщик" label="&lt;font style=&quot;font-size: 16px&quot;&gt;&lt;b&gt;%c4Name%&lt;/b&gt;&lt;/font&gt;&lt;div&gt;[%c4Type%: %c4Technology%]&lt;/div&gt;&lt;br&gt;&lt;div&gt;&lt;font style=&quot;font-size: 11px&quot;&gt;%c4Description%&lt;/font&gt;&lt;/div&gt;" id="iNfiKwskieoxh-VMMIlT-2">
          <mxCell style="rounded=1;whiteSpace=wrap;html=1;labelBackgroundColor=none;fillColor=#63BEF2;fontColor=#ffffff;align=center;arcSize=6;strokeColor=#2086C9;metaEdit=1;resizable=0;points=[[0.25,0,0],[0.5,0,0],[0.75,0,0],[1,0.25,0],[1,0.5,0],[1,0.75,0],[0.75,1,0],[0.5,1,0],[0.25,1,0],[0,0.75,0],[0,0.5,0],[0,0.25,0]];" vertex="1" parent="1">
            <mxGeometry x="-240" y="40" width="240" height="120" as="geometry" />
          </mxCell>
        </object>
        <mxCell id="iNfiKwskieoxh-VMMIlT-3" value="" style="endArrow=none;dashed=1;html=1;rounded=0;entryX=0.523;entryY=1.014;entryDx=0;entryDy=0;entryPerimeter=0;" edge="1" parent="1" source="iNfiKwskieoxh-VMMIlT-6">
          <mxGeometry width="50" height="50" relative="1" as="geometry">
            <mxPoint x="-120" y="640" as="sourcePoint" />
            <mxPoint x="-120.5" y="160" as="targetPoint" />
          </mxGeometry>
        </mxCell>
        <mxCell id="iNfiKwskieoxh-VMMIlT-4" value="" style="endArrow=none;dashed=1;html=1;rounded=0;entryX=0.523;entryY=1.014;entryDx=0;entryDy=0;entryPerimeter=0;" edge="1" parent="1" source="iNfiKwskieoxh-VMMIlT-8">
          <mxGeometry width="50" height="50" relative="1" as="geometry">
            <mxPoint x="211" y="640" as="sourcePoint" />
            <mxPoint x="211" y="160" as="targetPoint" />
          </mxGeometry>
        </mxCell>
        <mxCell id="iNfiKwskieoxh-VMMIlT-5" value="" style="endArrow=none;dashed=1;html=1;rounded=0;entryX=0.5;entryY=1;entryDx=0;entryDy=0;entryPerimeter=0;" edge="1" parent="1" target="iNfiKwskieoxh-VMMIlT-6">
          <mxGeometry width="50" height="50" relative="1" as="geometry">
            <mxPoint x="-120" y="520" as="sourcePoint" />
            <mxPoint x="-121.5" y="160" as="targetPoint" />
          </mxGeometry>
        </mxCell>
        <mxCell id="iNfiKwskieoxh-VMMIlT-6" value="" style="html=1;points=[[0,0,0,0,5],[0,1,0,0,-5],[1,0,0,0,5],[1,1,0,0,-5]];perimeter=orthogonalPerimeter;outlineConnect=0;targetShapes=umlLifeline;portConstraint=eastwest;newEdgeStyle={&quot;curved&quot;:0,&quot;rounded&quot;:0};fillColor=light-dark(#23458b, #6db2ff);fontColor=#ffffff;strokeColor=#001DBC;" vertex="1" parent="1">
          <mxGeometry x="-125" y="287" width="10" height="153" as="geometry" />
        </mxCell>
        <mxCell id="iNfiKwskieoxh-VMMIlT-7" value="" style="endArrow=none;dashed=1;html=1;rounded=0;entryX=0.523;entryY=1.014;entryDx=0;entryDy=0;entryPerimeter=0;" edge="1" parent="1" target="iNfiKwskieoxh-VMMIlT-8">
          <mxGeometry width="50" height="50" relative="1" as="geometry">
            <mxPoint x="211" y="520" as="sourcePoint" />
            <mxPoint x="210" y="160" as="targetPoint" />
          </mxGeometry>
        </mxCell>
        <mxCell id="iNfiKwskieoxh-VMMIlT-8" value="" style="html=1;points=[[0,0,0,0,5],[0,1,0,0,-5],[1,0,0,0,5],[1,1,0,0,-5]];perimeter=orthogonalPerimeter;outlineConnect=0;targetShapes=umlLifeline;portConstraint=eastwest;newEdgeStyle={&quot;curved&quot;:0,&quot;rounded&quot;:0};fillColor=light-dark(#23458b, #6db2ff);fontColor=#ffffff;strokeColor=#001DBC;" vertex="1" parent="1">
          <mxGeometry x="206" y="297" width="10" height="130" as="geometry" />
        </mxCell>
        <mxCell id="iNfiKwskieoxh-VMMIlT-9" value="" style="endArrow=classic;html=1;rounded=0;" edge="1" parent="1">
          <mxGeometry relative="1" as="geometry">
            <mxPoint x="-114" y="297" as="sourcePoint" />
            <mxPoint x="205.99999999999977" y="297" as="targetPoint" />
          </mxGeometry>
        </mxCell>
        <mxCell id="iNfiKwskieoxh-VMMIlT-10" value="Запрашивает данные для отчета" style="edgeLabel;resizable=0;html=1;;align=center;verticalAlign=middle;" connectable="0" vertex="1" parent="iNfiKwskieoxh-VMMIlT-9">
          <mxGeometry relative="1" as="geometry">
            <mxPoint x="24" as="offset" />
          </mxGeometry>
        </mxCell>
        <mxCell id="iNfiKwskieoxh-VMMIlT-11" value="Получает данные для отчета" style="endArrow=open;endSize=12;dashed=1;html=1;rounded=0;exitX=0;exitY=1;exitDx=0;exitDy=-5;exitPerimeter=0;" edge="1" parent="1">
          <mxGeometry width="160" relative="1" as="geometry">
            <mxPoint x="211" y="427" as="sourcePoint" />
            <mxPoint x="-109" y="427" as="targetPoint" />
            <mxPoint as="offset" />
          </mxGeometry>
        </mxCell>
        <mxCell id="iNfiKwskieoxh-VMMIlT-12" value="Аутентификация" style="endArrow=block;endSize=16;endFill=0;html=1;rounded=0;" edge="1" parent="1">
          <mxGeometry x="0.1" y="20" width="160" relative="1" as="geometry">
            <mxPoint x="216" y="307" as="sourcePoint" />
            <mxPoint x="226" y="347" as="targetPoint" />
            <Array as="points">
              <mxPoint x="251" y="307" />
              <mxPoint x="251" y="347" />
            </Array>
            <mxPoint as="offset" />
          </mxGeometry>
        </mxCell>
        <mxCell id="iNfiKwskieoxh-VMMIlT-13" value="" style="html=1;points=[[0,0,0,0,5],[0,1,0,0,-5],[1,0,0,0,5],[1,1,0,0,-5]];perimeter=orthogonalPerimeter;outlineConnect=0;targetShapes=umlLifeline;portConstraint=eastwest;newEdgeStyle={&quot;curved&quot;:0,&quot;rounded&quot;:0};fillColor=light-dark(#23458b, #6db2ff);fontColor=#ffffff;strokeColor=#001DBC;" vertex="1" parent="1">
          <mxGeometry x="216" y="317" width="10" height="40" as="geometry" />
        </mxCell>
        <mxCell id="iNfiKwskieoxh-VMMIlT-14" value="" style="html=1;points=[[0,0,0,0,5],[0,1,0,0,-5],[1,0,0,0,5],[1,1,0,0,-5]];perimeter=orthogonalPerimeter;outlineConnect=0;targetShapes=umlLifeline;portConstraint=eastwest;newEdgeStyle={&quot;curved&quot;:0,&quot;rounded&quot;:0};fillColor=light-dark(#23458b, #6db2ff);fontColor=#ffffff;strokeColor=#001DBC;" vertex="1" parent="1">
          <mxGeometry x="516" y="367" width="10" height="50" as="geometry" />
        </mxCell>
        <mxCell id="iNfiKwskieoxh-VMMIlT-15" value="" style="endArrow=classic;html=1;rounded=0;" edge="1" parent="1">
          <mxGeometry relative="1" as="geometry">
            <mxPoint x="216" y="367" as="sourcePoint" />
            <mxPoint x="511" y="367" as="targetPoint" />
          </mxGeometry>
        </mxCell>
        <mxCell id="iNfiKwskieoxh-VMMIlT-16" value="Запрашивает данные для отчета" style="edgeLabel;resizable=0;html=1;;align=center;verticalAlign=middle;" connectable="0" vertex="1" parent="iNfiKwskieoxh-VMMIlT-15">
          <mxGeometry relative="1" as="geometry" />
        </mxCell>
        <mxCell id="iNfiKwskieoxh-VMMIlT-17" value="Получает данные для отчета" style="endArrow=open;endSize=12;dashed=1;html=1;rounded=0;exitX=0;exitY=1;exitDx=0;exitDy=-5;exitPerimeter=0;" edge="1" parent="1" target="iNfiKwskieoxh-VMMIlT-8">
          <mxGeometry width="160" relative="1" as="geometry">
            <mxPoint x="516" y="417" as="sourcePoint" />
            <mxPoint x="221" y="417" as="targetPoint" />
            <mxPoint as="offset" />
          </mxGeometry>
        </mxCell>
        <object placeholders="1" c4Name="БД для хранения агрегированных данных" c4Type="Container" c4Technology="MongoDB" c4Description="Хранит агрегированные данные для отчетов &#xa;и мониторинговых панелей" label="&lt;font style=&quot;font-size: 16px&quot;&gt;&lt;b&gt;%c4Name%&lt;/b&gt;&lt;/font&gt;&lt;div&gt;[%c4Type%:&amp;nbsp;%c4Technology%]&lt;/div&gt;&lt;br&gt;&lt;div&gt;&lt;font style=&quot;font-size: 11px&quot;&gt;&lt;font color=&quot;#E6E6E6&quot;&gt;%c4Description%&lt;/font&gt;&lt;/div&gt;" id="iNfiKwskieoxh-VMMIlT-21">
          <mxCell style="shape=cylinder3;size=15;whiteSpace=wrap;html=1;boundedLbl=1;rounded=0;labelBackgroundColor=none;fillColor=#23A2D9;fontSize=12;fontColor=#ffffff;align=center;strokeColor=#0E7DAD;metaEdit=1;points=[[0.5,0,0],[1,0.25,0],[1,0.5,0],[1,0.75,0],[0.5,1,0],[0,0.75,0],[0,0.5,0],[0,0.25,0]];resizable=0;" vertex="1" parent="1">
            <mxGeometry x="700" y="40" width="240" height="120" as="geometry" />
          </mxCell>
        </object>
        <mxCell id="iNfiKwskieoxh-VMMIlT-22" value="" style="endArrow=none;dashed=1;html=1;rounded=0;entryX=0.523;entryY=1.014;entryDx=0;entryDy=0;entryPerimeter=0;" edge="1" parent="1" source="iNfiKwskieoxh-VMMIlT-40">
          <mxGeometry width="50" height="50" relative="1" as="geometry">
            <mxPoint x="817" y="520" as="sourcePoint" />
            <mxPoint x="817.5" y="160" as="targetPoint" />
          </mxGeometry>
        </mxCell>
        <object placeholders="1" c4Name="Маркетолог" c4Type="Person" c4Description="Просматривает отчеты.&#xa;Доступ к панелям мониторинга" label="&lt;font style=&quot;font-size: 16px&quot;&gt;&lt;b&gt;%c4Name%&lt;/b&gt;&lt;/font&gt;&lt;div&gt;[%c4Type%]&lt;/div&gt;&lt;br&gt;&lt;div&gt;&lt;font style=&quot;font-size: 11px&quot;&gt;&lt;font color=&quot;#cccccc&quot;&gt;%c4Description%&lt;/font&gt;&lt;/div&gt;" id="iNfiKwskieoxh-VMMIlT-23">
          <mxCell style="html=1;fontSize=11;dashed=0;whiteSpace=wrap;fillColor=#083F75;strokeColor=#06315C;fontColor=#ffffff;shape=mxgraph.c4.person2;align=center;metaEdit=1;points=[[0.5,0,0],[1,0.5,0],[1,0.75,0],[0.75,1,0],[0.5,1,0],[0.25,1,0],[0,0.75,0],[0,0.5,0]];resizable=0;" vertex="1" parent="1">
            <mxGeometry x="-480" y="-20" width="200" height="180" as="geometry" />
          </mxCell>
        </object>
        <mxCell id="iNfiKwskieoxh-VMMIlT-24" value="" style="endArrow=none;dashed=1;html=1;rounded=0;entryX=0.523;entryY=1.014;entryDx=0;entryDy=0;entryPerimeter=0;" edge="1" parent="1" source="iNfiKwskieoxh-VMMIlT-26">
          <mxGeometry width="50" height="50" relative="1" as="geometry">
            <mxPoint x="-380" y="642" as="sourcePoint" />
            <mxPoint x="-380.5" y="162" as="targetPoint" />
          </mxGeometry>
        </mxCell>
        <mxCell id="iNfiKwskieoxh-VMMIlT-25" value="" style="endArrow=none;dashed=1;html=1;rounded=0;entryX=0.523;entryY=1.014;entryDx=0;entryDy=0;entryPerimeter=0;" edge="1" parent="1" target="iNfiKwskieoxh-VMMIlT-26">
          <mxGeometry width="50" height="50" relative="1" as="geometry">
            <mxPoint x="-380" y="520" as="sourcePoint" />
            <mxPoint x="-381.5" y="162" as="targetPoint" />
          </mxGeometry>
        </mxCell>
        <mxCell id="iNfiKwskieoxh-VMMIlT-26" value="" style="html=1;points=[[0,0,0,0,5],[0,1,0,0,-5],[1,0,0,0,5],[1,1,0,0,-5]];perimeter=orthogonalPerimeter;outlineConnect=0;targetShapes=umlLifeline;portConstraint=eastwest;newEdgeStyle={&quot;curved&quot;:0,&quot;rounded&quot;:0};fillColor=light-dark(#23458b, #6db2ff);fontColor=#ffffff;strokeColor=#001DBC;" vertex="1" parent="1">
          <mxGeometry x="-385" y="270" width="10" height="190" as="geometry" />
        </mxCell>
        <mxCell id="iNfiKwskieoxh-VMMIlT-27" value="" style="endArrow=classic;html=1;rounded=0;" edge="1" parent="1" target="iNfiKwskieoxh-VMMIlT-6">
          <mxGeometry relative="1" as="geometry">
            <mxPoint x="-375" y="287" as="sourcePoint" />
            <mxPoint x="-84" y="287" as="targetPoint" />
          </mxGeometry>
        </mxCell>
        <mxCell id="iNfiKwskieoxh-VMMIlT-28" value="Запрашивает данные для отчета" style="edgeLabel;resizable=0;html=1;;align=center;verticalAlign=middle;" connectable="0" vertex="1" parent="iNfiKwskieoxh-VMMIlT-27">
          <mxGeometry relative="1" as="geometry" />
        </mxCell>
        <mxCell id="iNfiKwskieoxh-VMMIlT-29" value="Получает данные для отчета" style="endArrow=open;endSize=12;dashed=1;html=1;rounded=0;entryX=1.5;entryY=0.895;entryDx=0;entryDy=0;entryPerimeter=0;" edge="1" parent="1" target="iNfiKwskieoxh-VMMIlT-26">
          <mxGeometry width="160" relative="1" as="geometry">
            <mxPoint x="-130" y="440" as="sourcePoint" />
            <mxPoint x="-370" y="440" as="targetPoint" />
            <mxPoint as="offset" />
          </mxGeometry>
        </mxCell>
        <object placeholders="1" c4Name="Сервис анализа данных" c4Type="Container" c4Technology="ASP.Net Core WebApi, VueJS, &#xa;NCrontab" c4Description="- Запускает регулярную &#xa;задачу по анализу данных.&#xa;- Подготавливает данные для панелей мониторинга и отчетов." label="&lt;font style=&quot;font-size: 16px&quot;&gt;&lt;b&gt;%c4Name%&lt;/b&gt;&lt;/font&gt;&lt;div&gt;[%c4Type%: %c4Technology%]&lt;/div&gt;&lt;br&gt;&lt;div&gt;&lt;font style=&quot;font-size: 11px&quot;&gt;&lt;font color=&quot;#E6E6E6&quot;&gt;%c4Description%&lt;/font&gt;&lt;/div&gt;" id="iNfiKwskieoxh-VMMIlT-36">
          <mxCell style="rounded=1;whiteSpace=wrap;html=1;fontSize=11;labelBackgroundColor=none;fillColor=#23A2D9;fontColor=#ffffff;align=center;arcSize=10;strokeColor=#0E7DAD;metaEdit=1;resizable=0;points=[[0.25,0,0],[0.5,0,0],[0.75,0,0],[1,0.25,0],[1,0.5,0],[1,0.75,0],[0.75,1,0],[0.5,1,0],[0.25,1,0],[0,0.75,0],[0,0.5,0],[0,0.25,0]];" vertex="1" parent="1">
            <mxGeometry x="400" y="40" width="240" height="120" as="geometry" />
          </mxCell>
        </object>
        <mxCell id="iNfiKwskieoxh-VMMIlT-37" value="" style="endArrow=none;dashed=1;html=1;rounded=0;entryX=0.523;entryY=1.014;entryDx=0;entryDy=0;entryPerimeter=0;" edge="1" parent="1">
          <mxGeometry width="50" height="50" relative="1" as="geometry">
            <mxPoint x="520.41" y="520" as="sourcePoint" />
            <mxPoint x="520.91" y="160" as="targetPoint" />
          </mxGeometry>
        </mxCell>
        <mxCell id="iNfiKwskieoxh-VMMIlT-38" value="" style="endArrow=classic;html=1;rounded=0;" edge="1" parent="1" target="iNfiKwskieoxh-VMMIlT-40">
          <mxGeometry relative="1" as="geometry">
            <mxPoint x="526" y="391.41" as="sourcePoint" />
            <mxPoint x="810" y="390" as="targetPoint" />
          </mxGeometry>
        </mxCell>
        <mxCell id="iNfiKwskieoxh-VMMIlT-39" value="Запрашивает данные для отчета" style="edgeLabel;resizable=0;html=1;;align=center;verticalAlign=middle;" connectable="0" vertex="1" parent="iNfiKwskieoxh-VMMIlT-38">
          <mxGeometry relative="1" as="geometry" />
        </mxCell>
        <mxCell id="iNfiKwskieoxh-VMMIlT-41" value="" style="endArrow=none;dashed=1;html=1;rounded=0;entryX=0.523;entryY=1.014;entryDx=0;entryDy=0;entryPerimeter=0;" edge="1" parent="1" target="iNfiKwskieoxh-VMMIlT-40">
          <mxGeometry width="50" height="50" relative="1" as="geometry">
            <mxPoint x="817" y="520" as="sourcePoint" />
            <mxPoint x="817.5" y="160" as="targetPoint" />
          </mxGeometry>
        </mxCell>
        <mxCell id="iNfiKwskieoxh-VMMIlT-40" value="" style="html=1;points=[[0,0,0,0,5],[0,1,0,0,-5],[1,0,0,0,5],[1,1,0,0,-5]];perimeter=orthogonalPerimeter;outlineConnect=0;targetShapes=umlLifeline;portConstraint=eastwest;newEdgeStyle={&quot;curved&quot;:0,&quot;rounded&quot;:0};fillColor=light-dark(#23458b, #6db2ff);fontColor=#ffffff;strokeColor=#001DBC;" vertex="1" parent="1">
          <mxGeometry x="813" y="370" width="10" height="40" as="geometry" />
        </mxCell>
      </root>
    </mxGraphModel>
  </diagram>
</mxfile>
